{"title":"MasterChef.US.S03E03.HDTV.x264-NRG","uid":7358607,"size":346371067,"categoryP":"video","categoryS":"tv_shows","magnet":"?xt=urn:btih:69c1527791f3df17522055586b89a4d400aceb9f&amp;dn=MasterChef.US.S03E03.HDTV.x264-NRG&amp;tr=udp%3A%2F%2Ftracker.openbittorrent.com%3A80&amp;tr=udp%3A%2F%2Fopen.demonii.com%3A1337&amp;tr=udp%3A%2F%2Ftracker.coppersurfer.tk%3A6969&amp;tr=udp%3A%2F%2Fexodus.desync.com%3A6969","seeders":0,"leechers":1,"uploader":null,"files":2,"time":1339866118,"description":"For mp4 collectors. Made with scene encoding rules.\n   General\n      Format : MPEG-4\n      Format profile : Base Media\n      Codec ID : isom\n      File size : 330 MiB\n      Duration : 41mn 58s\n      Overall bit rate mode : Variable\n      Overall bit rate : 1 100 Kbps\n      Encoded date : UTC 2012-06-15 23:03:12\n      Tagged date : UTC 2012-06-15 23:03:12\n   Video #1\n      ID : 1\n      Format : AVC\n      Format/Info : Advanced Video Codec\n      Format profile : &lt;a class=&quot;__cf_email__&quot; href=&quot;/cdn-cgi/l/email-protection&quot; data-cfemail=&quot;1a52737d725a5629342b&quot;&gt;[email&amp;#160;protected]&lt;/a&gt;&lt;script cf-hash='f9e31' type=&quot;text/javascript&quot;&gt;\n/* &lt;![CDATA[ */!function(){try{var t=&quot;currentScript&quot;in document?document.currentScript:function(){for(var t=document.getElementsByTagName(&quot;script&quot;),e=t.length;e--;)if(t[e].getAttribute(&quot;cf-hash&quot;))return t[e]}();if(t&amp;&amp;t.previousSibling){var e,r,n,i,c=t.previousSibling,a=c.getAttribute(&quot;data-cfemail&quot;);if(a){for(e=&quot;&quot;,r=parseInt(a.substr(0,2),16),n=2;a.length-n;n+=2)i=parseInt(a.substr(n,2),16)^r,e+=String.fromCharCode(i);e=document.createTextNode(e),c.parentNode.replaceChild(e,c)}}}catch(u){}}();/* ]]&gt; */&lt;/script&gt;\n      Format settings, CABAC : Yes\n      Format settings, ReFrames : 5 frames\n      Codec ID : avc1\n      Codec ID/Info : Advanced Video Coding\n      Duration : 41mn 58s\n      Bit rate : 968 Kbps\n      Maximum bit rate : 4 015 Kbps\n      Width : 720 pixels\n      Height : 404 pixels\n      Display aspect ratio : 16:9\n      Frame rate mode : Constant\n      Frame rate : 23.976 fps\n      Color space : YUV\n      Chroma subsampling : 4:2:0\n      Bit depth : 8 bits\n      Scan type : Progressive\n      Bits/(Pixel*Frame) : 0.139\n      Stream size : 291 MiB (88%)\n      Title : MasterChef S03E03 NRG\n      Writing library : x264 core 125 r2200 999b753\n      Encoding settings : cabac=1 / ref=5 / deblock=1:2:2 / analyse=0x3:0x133 / me=umh / subme=9 / psy=1 / psy_rd=1.00:0.00 / mixed_ref=1 / me_range=16 / chroma_me=1 / trellis=2 / 8x8dct=1 / cqm=0 / deadzone=21,11 / fast_pskip=1 / chroma_qp_offset=-2 / threads=20 / lookahead_threads=3 / sliced_threads=0 / nr=0 / decimate=1 / interlaced=0 / bluray_compat=0 / constrained_intra=0 / bframes=3 / b_pyramid=2 / b_adapt=2 / b_bias=0 / direct=3 / weightb=1 / open_gop=0 / weightp=2 / keyint=250 / keyint_min=23 / scenecut=40 / intra_refresh=0 / rc_lookahead=60 / rc=crf / mbtree=1 / crf=21.0 / qcomp=0.60 / qpmin=0 / qpmax=69 / qpstep=4 / ip_ratio=1.40 / aq=1:1.00\n      Encoded date : UTC 2012-06-15 23:03:12\n      Tagged date : UTC 2012-06-15 23:03:46\n      Matrix coefficients : BT.709-5, BT.1361, IEC 61966-2-4 709, SMPTE RP177\n   Audio #2\n      ID : 2\n      Format : AAC\n      Format/Info : Advanced Audio Codec\n      Format profile : LC\n      Codec ID : 40\n      Duration : 41mn 58s\n      Bit rate mode : Variable\n      Bit rate : 128 Kbps\n      Maximum bit rate : 135 Kbps\n      Channel(s) : 2 channels\n      Channel positions : Front: L R\n      Sampling rate : 48.0 KHz\n      Compression mode : Lossy\n      Stream size : 38.4 MiB (12%)\n      Encoded date : UTC 2012-06-15 23:03:34\n      Tagged date : UTC 2012-06-15 23:03:46\n","torrent":{"xt":"urn:btih:69c1527791f3df17522055586b89a4d400aceb9f","amp;dn":"MasterChef.US.S03E03.HDTV.x264-NRG","amp;tr":["udp%3A%2F%2Ftracker.openbittorrent.com%3A80","udp%3A%2F%2Fopen.demonii.com%3A1337","udp%3A%2F%2Ftracker.coppersurfer.tk%3A6969","udp%3A%2F%2Fexodus.desync.com%3A6969"],"infoHash":"69c1527791f3df17522055586b89a4d400aceb9f","infoHashBuffer":{"type":"Buffer","data":[105,193,82,119,145,243,223,23,82,32,85,88,107,137,164,212,0,172,235,159]},"announce":[],"urlList":[]}}